<svg width="29" height="25" viewBox="0 0 29 25" fill="none" xmlns="http://www.w3.org/2000/svg">
<path fill-rule="evenodd" clip-rule="evenodd" d="M2.41667 0C1.77573 0 1.16104 0.181996 0.707826 0.50572C0.254613 0.829443 0 1.26838 0 1.72619C0 2.184 0.254613 2.62336 0.707826 2.94708C1.16104 3.27081 1.77573 3.45238 2.41667 3.45238H26.5833C27.2243 3.45238 27.839 3.27081 28.2922 2.94708C28.7454 2.62336 29 2.184 29 1.72619C29 1.26838 28.7454 0.829443 28.2922 0.50572C27.839 0.181996 27.2243 0 26.5833 0H2.41667ZM2.41667 10.3571C1.77573 10.3571 1.16104 10.5391 0.707826 10.8629C0.254613 11.1866 0 11.6255 0 12.0833C0 12.5411 0.254613 12.9805 0.707826 13.3042C1.16104 13.6279 1.77573 13.8095 2.41667 13.8095H26.5833C27.2243 13.8095 27.839 13.6279 28.2922 13.3042C28.7454 12.9805 29 12.5411 29 12.0833C29 11.6255 28.7454 11.1866 28.2922 10.8629C27.839 10.5391 27.2243 10.3571 26.5833 10.3571H2.41667ZM2.41667 20.7143C1.77573 20.7143 1.16104 20.8963 0.707826 21.22C0.254613 21.5437 0 21.9827 0 22.4405C0 22.8983 0.254613 23.3376 0.707826 23.6614C1.16104 23.9851 1.77573 24.1667 2.41667 24.1667H26.5833C27.2243 24.1667 27.839 23.9851 28.2922 23.6614C28.7454 23.3376 29 22.8983 29 22.4405C29 21.9827 28.7454 21.5437 28.2922 21.22C27.839 20.8963 27.2243 20.7143 26.5833 20.7143H2.41667Z" fill="#249FE6"/>
</svg>
