<svg width="25" height="25" viewBox="0 0 25 25" fill="none" xmlns="http://www.w3.org/2000/svg">
<path d="M22.8333 12.0833C20.7292 7.19791 16.7708 4.16666 12.5 4.16666C8.22918 4.16666 4.27084 7.19791 2.16668 12.0833C2.10932 12.2147 2.07971 12.3566 2.07971 12.5C2.07971 12.6434 2.10932 12.7852 2.16668 12.9167C4.27084 17.8021 8.22918 20.8333 12.5 20.8333C16.7708 20.8333 20.7292 17.8021 22.8333 12.9167C22.8907 12.7852 22.9203 12.6434 22.9203 12.5C22.9203 12.3566 22.8907 12.2147 22.8333 12.0833ZM12.5 18.75C9.19792 18.75 6.07292 16.3646 4.27084 12.5C6.07292 8.63541 9.19792 6.24999 12.5 6.24999C15.8021 6.24999 18.9271 8.63541 20.7292 12.5C18.9271 16.3646 15.8021 18.75 12.5 18.75ZM12.5 8.33332C11.6759 8.33332 10.8703 8.57769 10.1851 9.03553C9.49993 9.49337 8.96588 10.1441 8.65051 10.9055C8.33514 11.6668 8.25263 12.5046 8.4134 13.3129C8.57417 14.1211 8.97101 14.8635 9.55373 15.4463C10.1364 16.029 10.8789 16.4258 11.6871 16.5866C12.4954 16.7474 13.3332 16.6649 14.0945 16.3495C14.8559 16.0341 15.5066 15.5001 15.9645 14.8149C16.4223 14.1297 16.6667 13.3241 16.6667 12.5C16.6667 11.3949 16.2277 10.3351 15.4463 9.55371C14.6649 8.77231 13.6051 8.33332 12.5 8.33332ZM12.5 14.5833C12.088 14.5833 11.6852 14.4611 11.3426 14.2322C11 14.0033 10.7329 13.6779 10.5753 13.2972C10.4176 12.9166 10.3763 12.4977 10.4567 12.0936C10.5371 11.6894 10.7355 11.3182 11.0269 11.0269C11.3182 10.7355 11.6894 10.5371 12.0936 10.4567C12.4977 10.3763 12.9166 10.4176 13.2973 10.5752C13.6779 10.7329 14.0033 10.9999 14.2322 11.3426C14.4612 11.6852 14.5833 12.0879 14.5833 12.5C14.5833 13.0525 14.3638 13.5824 13.9731 13.9731C13.5824 14.3638 13.0525 14.5833 12.5 14.5833Z" fill="#73A5EE"/>
</svg>
