<svg width="29" height="29" viewBox="0 0 29 29" fill="none" xmlns="http://www.w3.org/2000/svg">
<path d="M14.5 27.065C12.8586 27.0677 11.2328 26.7463 9.71597 26.1191C8.19913 25.4918 6.8211 24.5712 5.66099 23.41C0.786993 18.536 0.786993 10.606 5.66099 5.73201C8.02199 3.37101 11.161 2.07001 14.5 2.07001C17.839 2.07001 20.978 3.37001 23.339 5.73201C28.213 10.606 28.213 18.536 23.339 23.41C22.1789 24.5712 20.8009 25.4918 19.284 26.1191C17.7672 26.7463 16.1414 27.0677 14.5 27.065ZM7.07499 21.996C11.169 26.09 17.831 26.09 21.925 21.996C23.908 20.012 25 17.375 25 14.571C25 11.767 23.908 9.13001 21.925 7.14601C19.942 5.16201 17.305 4.07001 14.5 4.07001C11.695 4.07001 9.05899 5.16301 7.07499 7.14601C5.09099 9.12901 3.99999 11.766 3.99999 14.571C3.99999 17.376 5.09199 20.012 7.07499 21.996Z" fill="black"/>
<path d="M16.798 20.167C16.6667 20.1671 16.5366 20.1413 16.4153 20.091C16.294 20.0408 16.1838 19.967 16.091 19.874L11.495 15.278C11.4021 15.1852 11.3283 15.075 11.278 14.9537C11.2277 14.8324 11.2018 14.7023 11.2018 14.571C11.2018 14.4397 11.2277 14.3096 11.278 14.1883C11.3283 14.067 11.4021 13.9568 11.495 13.864L16.091 9.26801C16.1839 9.17516 16.2941 9.10151 16.4154 9.05127C16.5367 9.00102 16.6667 8.97516 16.798 8.97516C16.9293 8.97516 17.0593 9.00102 17.1806 9.05127C17.3019 9.10151 17.4122 9.17516 17.505 9.26801C17.5979 9.36085 17.6715 9.47108 17.7218 9.59238C17.772 9.71369 17.7979 9.84371 17.7979 9.97501C17.7979 10.1063 17.772 10.2363 17.7218 10.3576C17.6715 10.4789 17.5979 10.5892 17.505 10.682L13.616 14.571L17.505 18.46C17.6453 18.5997 17.741 18.7779 17.7798 18.972C17.8186 19.1661 17.7989 19.3674 17.7232 19.5503C17.6474 19.7332 17.5191 19.8894 17.3543 19.9993C17.1896 20.1091 16.996 20.1674 16.798 20.167Z" fill="black"/>
</svg>
