<svg width="30" height="30" viewBox="0 0 30 30" fill="none" xmlns="http://www.w3.org/2000/svg">
<path d="M13.0272 25.3261H8.02717C6.40702 25.3202 5.09342 24.0114 5.08152 22.3913V12.4457C5.0847 11.9033 5.32739 11.3901 5.74457 11.0435L6.625 10.3913C6.94643 10.0489 6.97911 9.5263 6.70286 9.14646C6.42661 8.76662 5.9194 8.63671 5.49457 8.83698L4.59239 9.51089C3.68234 10.215 3.14229 11.2951 3.125 12.4457V22.4022C3.13098 25.1071 5.32226 27.2984 8.02717 27.3044H13.0272C13.5675 27.3044 14.0054 26.8664 14.0054 26.3261C14.0054 25.7858 13.5675 25.3478 13.0272 25.3478V25.3261Z" fill="#200E32"/>
<path d="M26.6141 12.4239C26.6027 11.2819 26.0802 10.205 25.1902 9.48915L17.6793 3.50002C16.0288 2.17332 13.6777 2.17332 12.0272 3.50002L9.64674 5.22828C9.19951 5.54945 9.09731 6.17235 9.41848 6.61959C9.73964 7.06682 10.3626 7.16901 10.8098 6.84785L13.2228 5.0435C14.1699 4.26375 15.5366 4.26375 16.4837 5.0435L23.9946 11.0326C24.4269 11.3753 24.6823 11.8941 24.6902 12.4457V22.4022C24.6902 24.023 23.3763 25.337 21.7554 25.337H19.5272C19.2991 25.337 19.1141 25.1521 19.1141 24.9239V20.4348C19.1141 19.0043 17.9577 17.843 16.5272 17.837H13.2663C12.5773 17.837 11.9166 18.1107 11.4294 18.5979C10.9422 19.0851 10.6685 19.7458 10.6685 20.4348V22.1522C10.6685 22.6925 11.1065 23.1305 11.6467 23.1305C12.187 23.1305 12.625 22.6925 12.625 22.1522V20.4348C12.6221 20.2657 12.6872 20.1026 12.8058 19.982C12.9243 19.8614 13.0863 19.7935 13.2554 19.7935H16.5163C16.8645 19.7935 17.1467 20.0758 17.1467 20.4239V24.9239C17.1527 26.2344 18.2167 27.2935 19.5272 27.2935H21.7011C24.4085 27.2935 26.6033 25.0987 26.6033 22.3913L26.6141 12.4239Z" fill="#200E32"/>
</svg>
