<svg width="263" height="219" viewBox="0 0 263 219" fill="none" xmlns="http://www.w3.org/2000/svg">
<path fill-rule="evenodd" clip-rule="evenodd" d="M94.9257 6.86633C113.207 5.08517 130.127 0.228 148.505 0.356247C169.512 0.502835 191.826 -2.70139 209.772 7.66775C228.781 18.6514 239.491 38.4808 248.151 57.9336C257.609 79.1783 266.282 101.814 261.771 124.472C257.069 148.092 244.616 172.343 222.907 184.73C201.867 196.736 174.757 182.667 150.804 187.792C123.872 193.553 99.888 228.427 75.4196 216.282C50.3301 203.829 66.3873 164.203 54.3162 139.9C44.6649 120.469 20.1721 110.812 12.9249 90.4618C4.1281 65.7609 -9.27126 32.9851 9.4452 13.9047C29.3311 -6.36797 65.8867 9.69557 94.9257 6.86633Z" fill="#2C8DE7"/>
</svg>
