<svg width="40" height="38" viewBox="0 0 40 38" fill="none" xmlns="http://www.w3.org/2000/svg">
<path d="M20.1712 5.39957C14.4862 5.39957 9.85874 9.79569 9.85874 15.1964C9.85874 17.8921 11.0275 20.33 12.8837 22.0982C12.9087 22.1398 12.915 22.1694 12.9837 22.2312L12.9462 22.1956L17.2412 26.7769V26.5893C17.2415 26.7336 17.297 26.8729 17.3975 26.9812L19.7025 29.4666C19.7611 29.53 19.8332 29.5807 19.914 29.6155C19.9948 29.6503 20.0825 29.6684 20.1712 29.6685H20.21C20.2981 29.6684 20.3852 29.6505 20.4656 29.6161C20.5459 29.5817 20.6177 29.5316 20.6762 29.469L23.02 26.9836C23.1183 26.8791 23.1746 26.7449 23.1787 26.6048V26.7769L27.9837 21.5994C28.0596 21.5175 28.1102 21.4172 28.13 21.3097C29.5575 19.6329 30.4837 17.5251 30.4837 15.1964C30.4837 9.87882 25.9812 5.57769 20.4175 5.44588C20.3396 5.41437 20.2559 5.3994 20.1712 5.39957ZM20.1712 6.58707C21.3614 6.58675 22.54 6.80923 23.6397 7.24178C24.7394 7.67433 25.7385 8.30848 26.5801 9.108C27.4217 9.90751 28.0893 10.8567 28.5446 11.9014C28.9999 12.9461 29.2341 14.0658 29.2337 15.1964C29.2279 17.2642 28.4364 19.2604 27.005 20.8181C26.9649 20.8612 26.9317 20.9096 26.9062 20.9618L22.085 26.1571C21.9876 26.2619 21.9322 26.3961 21.9287 26.5359V26.3613L20.195 28.2008L18.4912 26.3637V26.5513C18.4916 26.4062 18.436 26.2659 18.335 26.1571L13.8812 21.4071C13.8808 21.4071 13.8817 21.4071 13.8812 21.4071C13.8587 21.3691 13.8462 21.3382 13.7762 21.2729C12.932 20.4778 12.2616 19.5319 11.8038 18.4896C11.346 17.4474 11.1098 16.3294 11.1087 15.2C11.1084 14.0693 11.3426 12.9496 11.7979 11.905C12.2532 10.8603 12.9208 9.91108 13.7624 9.11156C14.604 8.31204 15.6031 7.67789 16.7028 7.24534C17.8024 6.81279 18.981 6.59032 20.1712 6.59063V6.58707ZM20.1712 11.0034C19.0017 11.0062 17.8808 11.4487 17.0535 12.2341C16.2263 13.0196 15.7599 14.0841 15.7562 15.1953C15.7592 16.3068 16.2253 17.372 17.0526 18.1579C17.88 18.9439 19.0012 19.3867 20.1712 19.3895C21.3408 19.3864 22.4616 18.9436 23.2886 18.1579C24.1156 17.3722 24.5817 16.3075 24.585 15.1964C24.5817 14.0853 24.1156 13.0206 23.2886 12.235C22.4616 11.4493 21.3408 11.0065 20.1712 11.0034ZM20.1712 12.1909C21.9212 12.1909 23.335 13.5328 23.335 15.1953C23.335 16.8589 21.9212 18.202 20.1712 18.202C19.7556 18.2025 19.3439 18.1251 18.9598 17.9742C18.5756 17.8233 18.2266 17.602 17.9326 17.3228C17.6386 17.0436 17.4055 16.7121 17.2465 16.3473C17.0876 15.9824 17.0059 15.5913 17.0062 15.1964C17.0062 13.5339 18.4212 12.1909 20.1712 12.1909ZM25.2962 26.6582C25.1305 26.6661 24.9748 26.7362 24.8635 26.8531C24.7521 26.97 24.6942 27.1242 24.7025 27.2816C24.7108 27.4391 24.7846 27.587 24.9076 27.6928C25.0307 27.7986 25.193 27.8536 25.3587 27.8457H28.3125L30.5562 31.4153H9.44374L11.6725 27.8694H15.9975C16.1633 27.8694 16.3222 27.8069 16.4394 27.6955C16.5566 27.5842 16.6225 27.4332 16.6225 27.2757C16.6225 27.1182 16.5566 26.9672 16.4394 26.8558C16.3222 26.7445 16.1633 26.6819 15.9975 26.6819H11.3175C11.2091 26.6818 11.1026 26.7085 11.0084 26.7593C10.9142 26.8101 10.8355 26.8833 10.78 26.9717L7.80499 31.7051C7.74847 31.7952 7.71807 31.8979 7.71689 32.0027C7.71571 32.1076 7.7438 32.2109 7.79828 32.3021C7.85276 32.3933 7.93171 32.4692 8.02708 32.522C8.12245 32.5748 8.23085 32.6027 8.34124 32.6028H31.6612C31.7717 32.6029 31.8803 32.5752 31.9758 32.5225C32.0714 32.4697 32.1505 32.3939 32.2051 32.3026C32.2598 32.2114 32.288 32.108 32.2868 32.003C32.2857 31.898 32.2553 31.7952 32.1987 31.7051L29.205 26.9479C29.1498 26.86 29.0717 26.7872 28.9782 26.7364C28.8847 26.6856 28.7789 26.6587 28.6712 26.6582H25.36C25.3392 26.6572 25.3183 26.6572 25.2975 26.6582H25.2962Z" fill="black"/>
</svg>
