<svg width="31" height="28" viewBox="0 0 31 28" fill="none" xmlns="http://www.w3.org/2000/svg">
<g clip-path="url(#clip0_13_152)">
<path d="M18.4692 26.3498L29.9954 2.149C30.056 1.98877 30.0657 1.81639 30.0233 1.65145C29.9809 1.48651 29.8881 1.33561 29.7556 1.21588C29.623 1.09615 29.4559 1.01238 29.2733 0.974091C29.0907 0.935799 28.8999 0.944516 28.7225 0.999251L2.07797 11.3146C1.25066 11.6323 0.894157 12.4565 0.957126 13.1556C1.01719 13.8066 1.42503 14.5276 2.29884 14.7009L13.0403 16.3144L14.9643 26.2518C15.9941 27.2948 17.4704 27.2948 18.4692 26.3498ZM24.861 4.39775L13.5422 14.6178L3.00603 13.0305C3.04284 12.9395 3.07191 12.873 3.10678 12.8188L24.861 4.39775ZM26.2289 5.635L16.9231 25.2525C16.8349 25.3041 16.7439 25.2744 16.6509 25.2525L14.9178 15.8585L26.2289 5.635Z" fill="black"/>
</g>
<defs>
<clipPath id="clip0_13_152">
<rect width="31" height="28" fill="white"/>
</clipPath>
</defs>
</svg>
